<mxfile host="app.diagrams.net" modified="2023-05-12T20:17:00.137Z" agent="Mozilla/5.0 (Macintosh; Intel Mac OS X 10_15_7) AppleWebKit/537.36 (KHTML, like Gecko) Chrome/113.0.0.0 Safari/537.36" etag="2FptvKHRsfX2_-Xrjim3" version="21.2.9" type="github">
  <diagram name="Page-1" id="J-Mr32PoL6Cncg6dfSGQ">
    <mxGraphModel dx="925" dy="592" grid="1" gridSize="10" guides="1" tooltips="1" connect="1" arrows="1" fold="1" page="1" pageScale="1" pageWidth="850" pageHeight="1100" math="0" shadow="0">
      <root>
        <mxCell id="0" />
        <mxCell id="1" parent="0" />
        <mxCell id="I3XtprsnqzshUGbHcbb--37" value="Database SG&lt;br&gt;" style="fillColor=none;strokeColor=#DD3522;verticalAlign=top;fontStyle=0;fontColor=#DD3522;whiteSpace=wrap;html=1;" parent="1" vertex="1">
          <mxGeometry x="110" y="780.2" width="630" height="180" as="geometry" />
        </mxCell>
        <mxCell id="wrQfga06u1_5y4bEcxpS-19" value="" style="group;movable=1;resizable=1;rotatable=1;deletable=1;editable=1;locked=0;connectable=1;" parent="1" vertex="1" connectable="0">
          <mxGeometry x="100" y="290" width="260" height="710" as="geometry" />
        </mxCell>
        <mxCell id="wrQfga06u1_5y4bEcxpS-6" value="Availability Zone A&lt;br&gt;" style="fillColor=none;strokeColor=#147EBA;dashed=1;verticalAlign=top;fontStyle=0;fontColor=#147EBA;whiteSpace=wrap;html=1;movable=1;resizable=1;rotatable=1;deletable=1;editable=1;locked=0;connectable=1;" parent="wrQfga06u1_5y4bEcxpS-19" vertex="1">
          <mxGeometry width="260" height="709.9999999999999" as="geometry" />
        </mxCell>
        <mxCell id="wrQfga06u1_5y4bEcxpS-10" value="Web Tier Subnet A - Public" style="points=[[0,0],[0.25,0],[0.5,0],[0.75,0],[1,0],[1,0.25],[1,0.5],[1,0.75],[1,1],[0.75,1],[0.5,1],[0.25,1],[0,1],[0,0.75],[0,0.5],[0,0.25]];outlineConnect=0;gradientColor=none;whiteSpace=wrap;fontSize=12;fontStyle=0;container=1;pointerEvents=0;collapsible=0;recursiveResize=0;shape=mxgraph.aws4.group;grIcon=mxgraph.aws4.group_security_group;grStroke=0;strokeColor=#248814;fillColor=#E9F3E6;verticalAlign=top;align=left;spacingLeft=30;fontColor=#248814;dashed=0;movable=1;resizable=1;rotatable=1;deletable=1;editable=1;locked=0;connectable=1;html=1;" parent="wrQfga06u1_5y4bEcxpS-19" vertex="1">
          <mxGeometry x="17.33" y="50" width="225.33" height="160" as="geometry" />
        </mxCell>
        <mxCell id="wrQfga06u1_5y4bEcxpS-12" value="Application Tier Subnet A - Private" style="points=[[0,0],[0.25,0],[0.5,0],[0.75,0],[1,0],[1,0.25],[1,0.5],[1,0.75],[1,1],[0.75,1],[0.5,1],[0.25,1],[0,1],[0,0.75],[0,0.5],[0,0.25]];outlineConnect=0;gradientColor=none;html=1;whiteSpace=wrap;fontSize=12;fontStyle=0;container=1;pointerEvents=0;collapsible=0;recursiveResize=0;shape=mxgraph.aws4.group;grIcon=mxgraph.aws4.group_security_group;grStroke=0;strokeColor=#147EBA;fillColor=#E6F2F8;verticalAlign=top;align=left;spacingLeft=30;fontColor=#147EBA;dashed=0;" parent="wrQfga06u1_5y4bEcxpS-19" vertex="1">
          <mxGeometry x="17.33" y="270" width="225.33" height="170" as="geometry" />
        </mxCell>
        <mxCell id="wrQfga06u1_5y4bEcxpS-14" value="Database Tier Subnet A - Private" style="points=[[0,0],[0.25,0],[0.5,0],[0.75,0],[1,0],[1,0.25],[1,0.5],[1,0.75],[1,1],[0.75,1],[0.5,1],[0.25,1],[0,1],[0,0.75],[0,0.5],[0,0.25]];outlineConnect=0;gradientColor=none;html=1;whiteSpace=wrap;fontSize=12;fontStyle=0;container=1;pointerEvents=0;collapsible=0;recursiveResize=0;shape=mxgraph.aws4.group;grIcon=mxgraph.aws4.group_security_group;grStroke=0;strokeColor=#147EBA;fillColor=#E6F2F8;verticalAlign=top;align=left;spacingLeft=30;fontColor=#147EBA;dashed=0;" parent="wrQfga06u1_5y4bEcxpS-19" vertex="1">
          <mxGeometry x="17.33" y="500" width="225.33" height="160" as="geometry" />
        </mxCell>
        <mxCell id="I3XtprsnqzshUGbHcbb--2" style="edgeStyle=orthogonalEdgeStyle;rounded=0;orthogonalLoop=1;jettySize=auto;html=1;exitX=0.5;exitY=1;exitDx=0;exitDy=0;" parent="wrQfga06u1_5y4bEcxpS-19" source="wrQfga06u1_5y4bEcxpS-6" target="wrQfga06u1_5y4bEcxpS-6" edge="1">
          <mxGeometry relative="1" as="geometry" />
        </mxCell>
        <mxCell id="n0i41jyvIG3DK1qc6FdR-15" value="" style="sketch=0;outlineConnect=0;fontColor=#232F3E;gradientColor=none;fillColor=#4D27AA;strokeColor=none;dashed=0;verticalLabelPosition=bottom;verticalAlign=top;align=center;html=1;fontSize=12;fontStyle=0;aspect=fixed;pointerEvents=1;shape=mxgraph.aws4.nat_gateway;" parent="wrQfga06u1_5y4bEcxpS-19" vertex="1">
          <mxGeometry x="180" y="170" width="38" height="38" as="geometry" />
        </mxCell>
        <mxCell id="I3XtprsnqzshUGbHcbb--25" value="RDS Database" style="text;html=1;align=center;verticalAlign=middle;resizable=0;points=[];autosize=1;strokeColor=none;fillColor=none;fontSize=10;spacingLeft=0;spacingRight=6;" parent="wrQfga06u1_5y4bEcxpS-19" vertex="1">
          <mxGeometry x="80" y="610" width="90" height="30" as="geometry" />
        </mxCell>
        <mxCell id="I3XtprsnqzshUGbHcbb--35" value="Web Server SG" style="fillColor=none;strokeColor=#DD3522;verticalAlign=top;fontStyle=0;fontColor=#DD3522;whiteSpace=wrap;html=1;" parent="1" vertex="1">
          <mxGeometry x="110" y="330" width="630" height="180" as="geometry" />
        </mxCell>
        <mxCell id="I3XtprsnqzshUGbHcbb--36" value="App Server SG" style="fillColor=none;strokeColor=#DD3522;verticalAlign=top;fontStyle=0;fontColor=#DD3522;whiteSpace=wrap;html=1;" parent="1" vertex="1">
          <mxGeometry x="106" y="555" width="630" height="180" as="geometry" />
        </mxCell>
        <mxCell id="wrQfga06u1_5y4bEcxpS-1" value="AWS Cloud" style="points=[[0,0],[0.25,0],[0.5,0],[0.75,0],[1,0],[1,0.25],[1,0.5],[1,0.75],[1,1],[0.75,1],[0.5,1],[0.25,1],[0,1],[0,0.75],[0,0.5],[0,0.25]];outlineConnect=0;gradientColor=none;html=1;whiteSpace=wrap;fontSize=12;fontStyle=0;container=1;pointerEvents=0;collapsible=0;recursiveResize=0;shape=mxgraph.aws4.group;grIcon=mxgraph.aws4.group_aws_cloud_alt;strokeColor=#232F3E;fillColor=none;verticalAlign=top;align=left;spacingLeft=30;fontColor=#232F3E;dashed=0;movable=1;resizable=1;rotatable=1;deletable=1;editable=1;locked=0;connectable=1;" parent="1" vertex="1">
          <mxGeometry x="10" y="200" width="830" height="890" as="geometry" />
        </mxCell>
        <mxCell id="wrQfga06u1_5y4bEcxpS-2" value="Region" style="points=[[0,0],[0.25,0],[0.5,0],[0.75,0],[1,0],[1,0.25],[1,0.5],[1,0.75],[1,1],[0.75,1],[0.5,1],[0.25,1],[0,1],[0,0.75],[0,0.5],[0,0.25]];outlineConnect=0;gradientColor=none;html=1;whiteSpace=wrap;fontSize=12;fontStyle=0;container=1;pointerEvents=0;collapsible=0;recursiveResize=0;shape=mxgraph.aws4.group;grIcon=mxgraph.aws4.group_region;strokeColor=#147EBA;fillColor=none;verticalAlign=top;align=left;spacingLeft=30;fontColor=#147EBA;dashed=1;movable=0;resizable=0;rotatable=0;deletable=0;editable=0;locked=1;connectable=0;" parent="1" vertex="1">
          <mxGeometry x="40" y="230" width="770" height="830" as="geometry" />
        </mxCell>
        <mxCell id="wrQfga06u1_5y4bEcxpS-4" value="VPC" style="points=[[0,0],[0.25,0],[0.5,0],[0.75,0],[1,0],[1,0.25],[1,0.5],[1,0.75],[1,1],[0.75,1],[0.5,1],[0.25,1],[0,1],[0,0.75],[0,0.5],[0,0.25]];outlineConnect=0;gradientColor=none;html=1;whiteSpace=wrap;fontSize=12;fontStyle=0;container=1;pointerEvents=0;collapsible=0;recursiveResize=0;shape=mxgraph.aws4.group;grIcon=mxgraph.aws4.group_vpc;strokeColor=#248814;fillColor=none;verticalAlign=top;align=left;spacingLeft=30;fontColor=#AAB7B8;dashed=0;movable=0;resizable=0;rotatable=0;deletable=0;editable=0;locked=1;connectable=0;" parent="1" vertex="1">
          <mxGeometry x="70" y="260" width="710" height="770" as="geometry" />
        </mxCell>
        <mxCell id="n0i41jyvIG3DK1qc6FdR-14" value="" style="edgeStyle=orthogonalEdgeStyle;rounded=0;orthogonalLoop=1;jettySize=auto;html=1;" parent="1" target="n0i41jyvIG3DK1qc6FdR-12" edge="1">
          <mxGeometry relative="1" as="geometry">
            <mxPoint x="420" y="170" as="sourcePoint" />
            <Array as="points">
              <mxPoint x="420" y="200" />
              <mxPoint x="420" y="200" />
            </Array>
          </mxGeometry>
        </mxCell>
        <mxCell id="wrQfga06u1_5y4bEcxpS-16" value="users" style="sketch=0;outlineConnect=0;gradientColor=none;fontColor=#545B64;strokeColor=none;fillColor=#879196;dashed=0;verticalLabelPosition=bottom;verticalAlign=top;align=center;html=1;fontSize=12;fontStyle=0;aspect=fixed;shape=mxgraph.aws4.illustration_users;pointerEvents=1;labelPosition=center;horizontal=1;whiteSpace=wrap;" parent="1" vertex="1">
          <mxGeometry x="406" y="120" width="30" height="30" as="geometry" />
        </mxCell>
        <mxCell id="wrQfga06u1_5y4bEcxpS-20" value="" style="group;movable=1;resizable=1;rotatable=1;deletable=1;editable=1;locked=0;connectable=1;" parent="1" vertex="1" connectable="0">
          <mxGeometry x="480" y="290" width="270" height="710" as="geometry" />
        </mxCell>
        <mxCell id="wrQfga06u1_5y4bEcxpS-21" value="Availability Zone - B" style="fillColor=none;strokeColor=#147EBA;dashed=1;verticalAlign=top;fontStyle=0;fontColor=#147EBA;whiteSpace=wrap;html=1;movable=1;resizable=1;rotatable=1;deletable=1;editable=1;locked=0;connectable=1;" parent="wrQfga06u1_5y4bEcxpS-20" vertex="1">
          <mxGeometry width="270" height="710" as="geometry" />
        </mxCell>
        <mxCell id="wrQfga06u1_5y4bEcxpS-22" value="Web Tier Subnet B - Public" style="points=[[0,0],[0.25,0],[0.5,0],[0.75,0],[1,0],[1,0.25],[1,0.5],[1,0.75],[1,1],[0.75,1],[0.5,1],[0.25,1],[0,1],[0,0.75],[0,0.5],[0,0.25]];outlineConnect=0;gradientColor=none;html=1;whiteSpace=wrap;fontSize=12;fontStyle=0;container=1;pointerEvents=0;collapsible=0;recursiveResize=0;shape=mxgraph.aws4.group;grIcon=mxgraph.aws4.group_security_group;grStroke=0;strokeColor=#248814;fillColor=#E9F3E6;verticalAlign=top;align=left;spacingLeft=30;fontColor=#248814;dashed=0;" parent="wrQfga06u1_5y4bEcxpS-20" vertex="1">
          <mxGeometry x="18" y="50" width="234" height="160" as="geometry" />
        </mxCell>
        <mxCell id="wrQfga06u1_5y4bEcxpS-23" value="Application Tier Subnet B - Private&lt;br&gt;" style="points=[[0,0],[0.25,0],[0.5,0],[0.75,0],[1,0],[1,0.25],[1,0.5],[1,0.75],[1,1],[0.75,1],[0.5,1],[0.25,1],[0,1],[0,0.75],[0,0.5],[0,0.25]];outlineConnect=0;gradientColor=none;html=1;whiteSpace=wrap;fontSize=12;fontStyle=0;container=1;pointerEvents=0;collapsible=0;recursiveResize=0;shape=mxgraph.aws4.group;grIcon=mxgraph.aws4.group_security_group;grStroke=0;strokeColor=#147EBA;fillColor=#E6F2F8;verticalAlign=top;align=left;spacingLeft=30;fontColor=#147EBA;dashed=0;movable=1;resizable=1;rotatable=1;deletable=1;editable=1;locked=0;connectable=1;" parent="wrQfga06u1_5y4bEcxpS-20" vertex="1">
          <mxGeometry x="18" y="270" width="234" height="170" as="geometry" />
        </mxCell>
        <mxCell id="wrQfga06u1_5y4bEcxpS-24" value="Database Tier Subnet B - Private" style="points=[[0,0],[0.25,0],[0.5,0],[0.75,0],[1,0],[1,0.25],[1,0.5],[1,0.75],[1,1],[0.75,1],[0.5,1],[0.25,1],[0,1],[0,0.75],[0,0.5],[0,0.25]];outlineConnect=0;gradientColor=none;html=1;whiteSpace=wrap;fontSize=12;fontStyle=0;container=1;pointerEvents=0;collapsible=0;recursiveResize=0;shape=mxgraph.aws4.group;grIcon=mxgraph.aws4.group_security_group;grStroke=0;strokeColor=#147EBA;fillColor=#E6F2F8;verticalAlign=top;align=left;spacingLeft=30;fontColor=#147EBA;dashed=0;movable=1;resizable=1;rotatable=1;deletable=1;editable=1;locked=0;connectable=1;" parent="wrQfga06u1_5y4bEcxpS-20" vertex="1">
          <mxGeometry x="18" y="500" width="234" height="160" as="geometry" />
        </mxCell>
        <mxCell id="I3XtprsnqzshUGbHcbb--22" value="EC2 Web servers" style="text;html=1;align=center;verticalAlign=middle;resizable=0;points=[];autosize=1;strokeColor=none;fillColor=none;fontSize=10;" parent="wrQfga06u1_5y4bEcxpS-20" vertex="1">
          <mxGeometry x="85" y="130" width="100" height="30" as="geometry" />
        </mxCell>
        <mxCell id="I3XtprsnqzshUGbHcbb--24" value="EC2 App servers" style="text;html=1;align=center;verticalAlign=middle;resizable=0;points=[];autosize=1;strokeColor=none;fillColor=none;fontSize=10;" parent="wrQfga06u1_5y4bEcxpS-20" vertex="1">
          <mxGeometry x="85" y="370" width="100" height="30" as="geometry" />
        </mxCell>
        <mxCell id="IY-ujXIUnnfR1MzyIJfL-21" value="" style="edgeStyle=orthogonalEdgeStyle;rounded=0;orthogonalLoop=1;jettySize=auto;html=1;" parent="1" source="n0i41jyvIG3DK1qc6FdR-12" target="IY-ujXIUnnfR1MzyIJfL-19" edge="1">
          <mxGeometry relative="1" as="geometry" />
        </mxCell>
        <mxCell id="n0i41jyvIG3DK1qc6FdR-12" value="" style="sketch=0;outlineConnect=0;fontColor=#232F3E;gradientColor=none;fillColor=#4D27AA;strokeColor=none;dashed=0;verticalLabelPosition=bottom;verticalAlign=top;align=center;html=1;fontSize=12;fontStyle=0;aspect=fixed;pointerEvents=1;shape=mxgraph.aws4.internet_gateway;" parent="1" vertex="1">
          <mxGeometry x="402" y="240" width="38" height="38" as="geometry" />
        </mxCell>
        <mxCell id="n0i41jyvIG3DK1qc6FdR-10" value="" style="sketch=0;outlineConnect=0;fontColor=#232F3E;gradientColor=none;fillColor=#D45B07;strokeColor=none;dashed=0;verticalLabelPosition=bottom;verticalAlign=top;align=center;html=1;fontSize=12;fontStyle=0;aspect=fixed;pointerEvents=1;shape=mxgraph.aws4.instances;movable=1;resizable=1;rotatable=1;deletable=1;editable=1;locked=0;connectable=1;" parent="1" vertex="1">
          <mxGeometry x="591" y="621" width="48" height="48" as="geometry" />
        </mxCell>
        <mxCell id="n0i41jyvIG3DK1qc6FdR-11" value="" style="sketch=0;outlineConnect=0;fontColor=#232F3E;gradientColor=none;fillColor=#D45B07;strokeColor=none;dashed=0;verticalLabelPosition=bottom;verticalAlign=top;align=center;html=1;fontSize=12;fontStyle=0;aspect=fixed;pointerEvents=1;shape=mxgraph.aws4.instances;movable=1;resizable=1;rotatable=1;deletable=1;editable=1;locked=0;connectable=1;" parent="1" vertex="1">
          <mxGeometry x="190" y="621" width="48" height="48" as="geometry" />
        </mxCell>
        <mxCell id="wrQfga06u1_5y4bEcxpS-32" value="" style="sketch=0;points=[[0,0,0],[0.25,0,0],[0.5,0,0],[0.75,0,0],[1,0,0],[0,1,0],[0.25,1,0],[0.5,1,0],[0.75,1,0],[1,1,0],[0,0.25,0],[0,0.5,0],[0,0.75,0],[1,0.25,0],[1,0.5,0],[1,0.75,0]];outlineConnect=0;fontColor=#232F3E;gradientColor=#4D72F3;gradientDirection=north;fillColor=#3334B9;strokeColor=#ffffff;dashed=0;verticalLabelPosition=bottom;verticalAlign=top;align=center;html=1;fontSize=12;fontStyle=0;aspect=fixed;shape=mxgraph.aws4.resourceIcon;resIcon=mxgraph.aws4.rds;" parent="1" vertex="1">
          <mxGeometry x="192" y="840" width="58" height="58" as="geometry" />
        </mxCell>
        <mxCell id="n0i41jyvIG3DK1qc6FdR-16" value="Auto Scaling group" style="points=[[0,0],[0.25,0],[0.5,0],[0.75,0],[1,0],[1,0.25],[1,0.5],[1,0.75],[1,1],[0.75,1],[0.5,1],[0.25,1],[0,1],[0,0.75],[0,0.5],[0,0.25]];outlineConnect=0;gradientColor=none;html=1;whiteSpace=wrap;fontSize=10;fontStyle=0;container=1;pointerEvents=0;collapsible=0;recursiveResize=0;shape=mxgraph.aws4.groupCenter;grIcon=mxgraph.aws4.group_auto_scaling_group;grStroke=1;strokeColor=#D86613;fillColor=none;verticalAlign=top;align=center;fontColor=#D86613;dashed=1;spacingTop=25;movable=1;resizable=1;rotatable=1;deletable=1;editable=1;locked=0;connectable=1;" parent="1" vertex="1">
          <mxGeometry x="171" y="610" width="500" height="80" as="geometry" />
        </mxCell>
        <mxCell id="I3XtprsnqzshUGbHcbb--11" style="edgeStyle=orthogonalEdgeStyle;rounded=0;orthogonalLoop=1;jettySize=auto;html=1;exitX=0.809;exitY=1.002;exitDx=0;exitDy=0;exitPerimeter=0;" parent="1" source="I3XtprsnqzshUGbHcbb--36" target="I3XtprsnqzshUGbHcbb--8" edge="1">
          <mxGeometry relative="1" as="geometry">
            <mxPoint x="615" y="730" as="sourcePoint" />
            <Array as="points">
              <mxPoint x="616" y="760" />
              <mxPoint x="470" y="760" />
              <mxPoint x="470" y="869" />
            </Array>
          </mxGeometry>
        </mxCell>
        <mxCell id="I3XtprsnqzshUGbHcbb--12" style="edgeStyle=orthogonalEdgeStyle;rounded=0;orthogonalLoop=1;jettySize=auto;html=1;exitX=0.164;exitY=1.002;exitDx=0;exitDy=0;exitPerimeter=0;" parent="1" source="I3XtprsnqzshUGbHcbb--36" target="I3XtprsnqzshUGbHcbb--8" edge="1">
          <mxGeometry relative="1" as="geometry">
            <mxPoint x="210" y="730" as="sourcePoint" />
            <Array as="points">
              <mxPoint x="209" y="760" />
              <mxPoint x="380" y="760" />
              <mxPoint x="380" y="830" />
              <mxPoint x="418" y="830" />
            </Array>
          </mxGeometry>
        </mxCell>
        <mxCell id="I3XtprsnqzshUGbHcbb--34" style="edgeStyle=orthogonalEdgeStyle;rounded=0;orthogonalLoop=1;jettySize=auto;html=1;" parent="1" source="I3XtprsnqzshUGbHcbb--8" target="wrQfga06u1_5y4bEcxpS-32" edge="1">
          <mxGeometry relative="1" as="geometry">
            <Array as="points">
              <mxPoint x="370" y="869" />
              <mxPoint x="370" y="869" />
            </Array>
          </mxGeometry>
        </mxCell>
        <mxCell id="I3XtprsnqzshUGbHcbb--8" value="" style="sketch=0;outlineConnect=0;fontColor=#232F3E;gradientColor=none;fillColor=#4D27AA;strokeColor=none;dashed=0;verticalLabelPosition=bottom;verticalAlign=top;align=center;html=1;fontSize=12;fontStyle=0;aspect=fixed;pointerEvents=1;shape=mxgraph.aws4.route_table;" parent="1" vertex="1">
          <mxGeometry x="402" y="853.9" width="31" height="30.2" as="geometry" />
        </mxCell>
        <mxCell id="I3XtprsnqzshUGbHcbb--14" value="" style="sketch=0;outlineConnect=0;fontColor=#232F3E;gradientColor=none;fillColor=#4D27AA;strokeColor=none;dashed=0;verticalLabelPosition=bottom;verticalAlign=top;align=center;html=1;fontSize=12;fontStyle=0;aspect=fixed;pointerEvents=1;shape=mxgraph.aws4.route_table;" parent="1" vertex="1">
          <mxGeometry x="402" y="700" width="30.79" height="30" as="geometry" />
        </mxCell>
        <mxCell id="I3XtprsnqzshUGbHcbb--17" value="" style="group" parent="1" vertex="1" connectable="0">
          <mxGeometry x="171" y="370" width="500" height="80" as="geometry" />
        </mxCell>
        <mxCell id="n0i41jyvIG3DK1qc6FdR-8" value="" style="sketch=0;outlineConnect=0;fontColor=#232F3E;gradientColor=none;fillColor=#D45B07;strokeColor=none;dashed=0;verticalLabelPosition=bottom;verticalAlign=top;align=center;html=1;fontSize=12;fontStyle=0;aspect=fixed;pointerEvents=1;shape=mxgraph.aws4.instances;movable=1;resizable=1;rotatable=1;deletable=1;editable=1;locked=0;connectable=1;" parent="I3XtprsnqzshUGbHcbb--17" vertex="1">
          <mxGeometry x="19" y="10" width="48" height="48" as="geometry" />
        </mxCell>
        <mxCell id="n0i41jyvIG3DK1qc6FdR-9" value="" style="sketch=0;outlineConnect=0;fontColor=#232F3E;gradientColor=none;fillColor=#D45B07;strokeColor=none;dashed=0;verticalLabelPosition=bottom;verticalAlign=top;align=center;html=1;fontSize=12;fontStyle=0;aspect=fixed;pointerEvents=1;shape=mxgraph.aws4.instances;" parent="I3XtprsnqzshUGbHcbb--17" vertex="1">
          <mxGeometry x="420" y="10" width="48" height="48" as="geometry" />
        </mxCell>
        <mxCell id="n0i41jyvIG3DK1qc6FdR-17" value="Auto Scaling group" style="points=[[0,0],[0.25,0],[0.5,0],[0.75,0],[1,0],[1,0.25],[1,0.5],[1,0.75],[1,1],[0.75,1],[0.5,1],[0.25,1],[0,1],[0,0.75],[0,0.5],[0,0.25]];outlineConnect=0;gradientColor=none;html=1;whiteSpace=wrap;fontSize=10;fontStyle=0;container=1;pointerEvents=0;collapsible=0;recursiveResize=0;shape=mxgraph.aws4.groupCenter;grIcon=mxgraph.aws4.group_auto_scaling_group;grStroke=1;strokeColor=#D86613;fillColor=none;verticalAlign=top;align=center;fontColor=#D86613;dashed=1;spacingTop=25;movable=1;resizable=1;rotatable=1;deletable=1;editable=1;locked=0;connectable=1;" parent="I3XtprsnqzshUGbHcbb--17" vertex="1">
          <mxGeometry width="500" height="80" as="geometry" />
        </mxCell>
        <mxCell id="I3XtprsnqzshUGbHcbb--21" value="EC2 Web servers" style="text;html=1;align=center;verticalAlign=middle;resizable=0;points=[];autosize=1;strokeColor=none;fillColor=none;fontSize=10;" parent="I3XtprsnqzshUGbHcbb--17" vertex="1">
          <mxGeometry x="-7" y="50" width="100" height="30" as="geometry" />
        </mxCell>
        <mxCell id="I3XtprsnqzshUGbHcbb--23" value="EC2 App servers" style="text;html=1;align=center;verticalAlign=middle;resizable=0;points=[];autosize=1;strokeColor=none;fillColor=none;fontSize=10;" parent="1" vertex="1">
          <mxGeometry x="164" y="660" width="100" height="30" as="geometry" />
        </mxCell>
        <mxCell id="I3XtprsnqzshUGbHcbb--27" value="" style="sketch=0;outlineConnect=0;fontColor=#232F3E;gradientColor=none;fillColor=#4D27AA;strokeColor=none;dashed=0;verticalLabelPosition=bottom;verticalAlign=top;align=center;html=1;fontSize=12;fontStyle=0;aspect=fixed;pointerEvents=1;shape=mxgraph.aws4.route_table;" parent="1" vertex="1">
          <mxGeometry x="402.21" y="420" width="30.79" height="30" as="geometry" />
        </mxCell>
        <mxCell id="IY-ujXIUnnfR1MzyIJfL-13" style="edgeStyle=orthogonalEdgeStyle;rounded=0;orthogonalLoop=1;jettySize=auto;html=1;" parent="1" source="IY-ujXIUnnfR1MzyIJfL-3" target="wrQfga06u1_5y4bEcxpS-23" edge="1">
          <mxGeometry relative="1" as="geometry" />
        </mxCell>
        <mxCell id="IY-ujXIUnnfR1MzyIJfL-14" style="edgeStyle=orthogonalEdgeStyle;rounded=0;orthogonalLoop=1;jettySize=auto;html=1;" parent="1" source="IY-ujXIUnnfR1MzyIJfL-3" target="wrQfga06u1_5y4bEcxpS-12" edge="1">
          <mxGeometry relative="1" as="geometry" />
        </mxCell>
        <mxCell id="IY-ujXIUnnfR1MzyIJfL-3" value="" style="sketch=0;points=[[0,0,0],[0.25,0,0],[0.5,0,0],[0.75,0,0],[1,0,0],[0,1,0],[0.25,1,0],[0.5,1,0],[0.75,1,0],[1,1,0],[0,0.25,0],[0,0.5,0],[0,0.75,0],[1,0.25,0],[1,0.5,0],[1,0.75,0]];outlineConnect=0;fontColor=#232F3E;gradientColor=#F78E04;gradientDirection=north;fillColor=#D05C17;strokeColor=#ffffff;dashed=0;verticalLabelPosition=bottom;verticalAlign=top;align=center;html=1;fontSize=12;fontStyle=0;aspect=fixed;shape=mxgraph.aws4.resourceIcon;resIcon=mxgraph.aws4.elastic_load_balancing;" parent="1" vertex="1">
          <mxGeometry x="408.5" y="525" width="25" height="25" as="geometry" />
        </mxCell>
        <mxCell id="IY-ujXIUnnfR1MzyIJfL-16" style="edgeStyle=orthogonalEdgeStyle;rounded=0;orthogonalLoop=1;jettySize=auto;html=1;entryX=0.5;entryY=0;entryDx=0;entryDy=0;entryPerimeter=0;" parent="1" source="wrQfga06u1_5y4bEcxpS-10" target="IY-ujXIUnnfR1MzyIJfL-3" edge="1">
          <mxGeometry relative="1" as="geometry">
            <Array as="points">
              <mxPoint x="421" y="460" />
            </Array>
          </mxGeometry>
        </mxCell>
        <mxCell id="IY-ujXIUnnfR1MzyIJfL-17" style="edgeStyle=orthogonalEdgeStyle;rounded=0;orthogonalLoop=1;jettySize=auto;html=1;" parent="1" source="wrQfga06u1_5y4bEcxpS-22" target="IY-ujXIUnnfR1MzyIJfL-3" edge="1">
          <mxGeometry relative="1" as="geometry">
            <Array as="points">
              <mxPoint x="421" y="460" />
            </Array>
          </mxGeometry>
        </mxCell>
        <mxCell id="IY-ujXIUnnfR1MzyIJfL-22" style="edgeStyle=orthogonalEdgeStyle;rounded=0;orthogonalLoop=1;jettySize=auto;html=1;" parent="1" source="IY-ujXIUnnfR1MzyIJfL-19" target="wrQfga06u1_5y4bEcxpS-22" edge="1">
          <mxGeometry relative="1" as="geometry" />
        </mxCell>
        <mxCell id="IY-ujXIUnnfR1MzyIJfL-23" style="edgeStyle=orthogonalEdgeStyle;rounded=0;orthogonalLoop=1;jettySize=auto;html=1;" parent="1" source="IY-ujXIUnnfR1MzyIJfL-19" target="wrQfga06u1_5y4bEcxpS-10" edge="1">
          <mxGeometry relative="1" as="geometry" />
        </mxCell>
        <mxCell id="IY-ujXIUnnfR1MzyIJfL-19" value="" style="sketch=0;points=[[0,0,0],[0.25,0,0],[0.5,0,0],[0.75,0,0],[1,0,0],[0,1,0],[0.25,1,0],[0.5,1,0],[0.75,1,0],[1,1,0],[0,0.25,0],[0,0.5,0],[0,0.75,0],[1,0.25,0],[1,0.5,0],[1,0.75,0]];outlineConnect=0;fontColor=#232F3E;gradientColor=#F78E04;gradientDirection=north;fillColor=#D05C17;strokeColor=#ffffff;dashed=0;verticalLabelPosition=bottom;verticalAlign=top;align=center;html=1;fontSize=12;fontStyle=0;aspect=fixed;shape=mxgraph.aws4.resourceIcon;resIcon=mxgraph.aws4.elastic_load_balancing;" parent="1" vertex="1">
          <mxGeometry x="408.5" y="300" width="25" height="25" as="geometry" />
        </mxCell>
        <mxCell id="IY-ujXIUnnfR1MzyIJfL-24" value="ALB" style="text;html=1;align=center;verticalAlign=middle;resizable=0;points=[];autosize=1;strokeColor=none;fillColor=none;fontSize=10;spacingBottom=4;spacingLeft=1;" parent="1" vertex="1">
          <mxGeometry x="425" y="310" width="40" height="30" as="geometry" />
        </mxCell>
        <mxCell id="IY-ujXIUnnfR1MzyIJfL-25" value="ALB" style="text;html=1;align=center;verticalAlign=middle;resizable=0;points=[];autosize=1;strokeColor=none;fillColor=none;fontSize=10;spacingBottom=4;spacingLeft=1;" parent="1" vertex="1">
          <mxGeometry x="425" y="535" width="40" height="30" as="geometry" />
        </mxCell>
      </root>
    </mxGraphModel>
  </diagram>
</mxfile>
